{
    "asset" : {
        "generator" : "Khronos glTF Blender I/O v3.2.43",
        "version" : "2.0"
    },
    "scene" : 0,
    "scenes" : [
        {
            "name" : "Scene",
            "nodes" : [
                0
            ]
        }
    ],
    "nodes" : [
        {
            "mesh" : 0,
            "name" : "Sphere",
            "translation" : [
                0.013168910518288612,
                -0.0055411458015441895,
                -0.01729116588830948
            ]
        }
    ],
    "materials" : [
        {
            "doubleSided" : true,
            "name" : "Material.001",
            "pbrMetallicRoughness" : {
                "baseColorFactor" : [
                    0.800000011920929,
                    0,
                    0.018859101459383965,
                    1
                ],
                "metallicFactor" : 0,
                "roughnessFactor" : 0.5
            }
        }
    ],
    "meshes" : [
        {
            "name" : "Sphere",
            "primitives" : [
                {
                    "attributes" : {
                        "POSITION" : 0,
                        "NORMAL" : 1
                    },
                    "indices" : 2,
                    "material" : 0
                }
            ]
        }
    ],
    "accessors" : [
        {
            "bufferView" : 0,
            "componentType" : 5126,
            "count" : 1378,
            "max" : [
                0.8469993472099304,
                4.656381607055664,
                0.8226190209388733
            ],
            "min" : [
                -0.7982377409934998,
                0.029512882232666016,
                -0.8226184248924255
            ],
            "type" : "VEC3"
        },
        {
            "bufferView" : 1,
            "componentType" : 5126,
            "count" : 1378,
            "type" : "VEC3"
        },
        {
            "bufferView" : 2,
            "componentType" : 5123,
            "count" : 8256,
            "type" : "SCALAR"
        }
    ],
    "bufferViews" : [
        {
            "buffer" : 0,
            "byteLength" : 16536,
            "byteOffset" : 0
        },
        {
            "buffer" : 0,
            "byteLength" : 16536,
            "byteOffset" : 16536
        },
        {
            "buffer" : 0,
            "byteLength" : 16512,
            "byteOffset" : 33072
        }
    ],
    "buffers" : [
        {
            "byteLength" : 49584,
            "uri" : "data:application/octet-stream;base64,"
        }
    ]
}
